<?xml version="1.0" standalone="no"?>
<!DOCTYPE svg PUBLIC "-//W3C//DTD SVG 20010904//EN"
 "http://www.w3.org/TR/2001/REC-SVG-20010904/DTD/svg10.dtd">
<svg version="1.0" xmlns="http://www.w3.org/2000/svg"
 width="256.000000pt" height="256.000000pt" viewBox="0 0 256.000000 256.000000"
 preserveAspectRatio="xMidYMid meet">

<g transform="translate(0.000000,256.000000) scale(0.100000,-0.100000)"
fill="#000000" stroke="none">
<path d="M1140 2554 c-200 -26 -408 -102 -565 -207 -83 -56 -108 -77 -203
-170 -172 -170 -294 -396 -348 -647 -26 -119 -26 -381 0 -500 110 -512 494
-896 1006 -1006 119 -26 381 -26 500 0 513 111 895 493 1006 1006 26 119 26
381 0 500 -111 513 -494 896 -1006 1006 -73 15 -320 27 -390 18z m361 -381
c10 -42 10 -65 0 -105 -22 -99 -50 -137 -207 -293 -83 -82 -160 -166 -170
-185 -13 -24 -18 -55 -18 -100 1 -80 34 -155 100 -229 25 -28 41 -51 36 -51
-20 0 -135 95 -173 143 -44 56 -74 142 -66 197 11 88 58 147 227 290 188 160
233 227 234 348 1 59 3 69 13 56 7 -9 18 -41 24 -71z m79 -349 c-74 -48 -146
-120 -170 -170 -32 -65 -26 -113 25 -212 64 -123 58 -184 -28 -257 -49 -42
-66 -45 -41 -7 30 46 24 111 -18 179 -59 96 -68 120 -68 173 0 108 82 205 241
285 109 54 134 58 59 9z m331 -627 c19 -12 42 -40 53 -61 16 -33 17 -43 7 -78
-18 -59 -83 -123 -165 -163 -39 -19 -84 -37 -101 -41 -24 -5 -18 1 30 33 110
72 166 160 150 233 -8 36 -47 72 -93 86 l-37 12 61 1 c48 1 68 -4 95 -22z
m-939 -17 c-78 -22 -95 -36 -68 -55 40 -30 129 -40 356 -40 178 0 242 4 307
18 78 17 84 17 109 0 l26 -17 -38 -13 c-219 -76 -750 -63 -879 21 -20 13 -23
20 -15 36 15 28 147 67 230 68 29 1 24 -3 -28 -18z m1 -223 c-6 -30 20 -42
128 -58 92 -13 273 -8 385 12 67 12 73 11 104 -8 l32 -21 -48 -15 c-94 -31
-180 -41 -339 -40 -164 0 -286 17 -348 49 -59 31 -43 68 40 90 26 7 49 13 49
13 1 1 -1 -9 -3 -22z m65 -209 c-2 -6 11 -19 27 -27 38 -20 246 -27 328 -12
54 10 62 9 98 -12 21 -12 39 -25 39 -29 0 -13 -105 -39 -202 -49 -151 -15
-341 15 -383 61 -17 19 -17 21 0 40 10 11 32 24 49 29 43 13 46 13 44 -1z
m-224 -69 c-64 -24 -103 -63 -88 -87 16 -25 116 -58 240 -78 79 -13 158 -18
289 -17 270 2 473 39 545 100 31 26 50 24 50 -7 0 -47 -105 -95 -280 -127
-120 -22 -549 -25 -680 -5 -223 34 -325 80 -304 137 10 25 85 63 165 85 95 24
128 24 63 -1z m1116 -156 c-1 -13 -34 -49 -65 -70 -46 -31 -159 -68 -270 -89
-142 -27 -517 -27 -657 -1 -54 11 -101 23 -104 28 -3 6 4 8 18 4 59 -13 216
-25 344 -25 305 0 562 48 673 126 48 33 61 39 61 27z"/>
</g>
</svg>
